<mxfile host="app.diagrams.net" modified="2022-04-10T13:08:58.601Z" agent="5.0 (Windows NT 10.0; Win64; x64) AppleWebKit/537.36 (KHTML, like Gecko) Chrome/100.0.4896.75 Safari/537.36" etag="Y0C3BWX9HFTCG8Q1C7Dq" version="17.1.2" type="github">
  <diagram id="zqGLJk5UMvPrqmy6urZE" name="Page-1">
    <mxGraphModel dx="782" dy="1605" grid="1" gridSize="10" guides="1" tooltips="1" connect="1" arrows="1" fold="1" page="1" pageScale="1" pageWidth="827" pageHeight="1169" math="0" shadow="0">
      <root>
        <mxCell id="0" />
        <mxCell id="1" parent="0" />
        <mxCell id="RtKo5a0ZY0x2Z-9psbsB-5" value="" style="edgeStyle=orthogonalEdgeStyle;rounded=0;orthogonalLoop=1;jettySize=auto;html=1;fontColor=#000000;" edge="1" parent="1" source="RtKo5a0ZY0x2Z-9psbsB-1" target="RtKo5a0ZY0x2Z-9psbsB-4">
          <mxGeometry relative="1" as="geometry" />
        </mxCell>
        <mxCell id="RtKo5a0ZY0x2Z-9psbsB-1" value="&lt;pre style=&quot;font-family: &amp;#34;consolas&amp;#34; ; font-size: 9.8pt&quot;&gt;@EnableAspectJAutoProxy&lt;/pre&gt;" style="rounded=0;whiteSpace=wrap;html=1;" vertex="1" parent="1">
          <mxGeometry x="40" y="70" width="210" height="60" as="geometry" />
        </mxCell>
        <mxCell id="RtKo5a0ZY0x2Z-9psbsB-3" style="edgeStyle=orthogonalEdgeStyle;rounded=0;orthogonalLoop=1;jettySize=auto;html=1;exitX=0.5;exitY=1;exitDx=0;exitDy=0;fontColor=#000000;" edge="1" parent="1" source="RtKo5a0ZY0x2Z-9psbsB-2" target="RtKo5a0ZY0x2Z-9psbsB-1">
          <mxGeometry relative="1" as="geometry" />
        </mxCell>
        <mxCell id="RtKo5a0ZY0x2Z-9psbsB-2" value="开启动态代理" style="rounded=0;whiteSpace=wrap;html=1;labelBackgroundColor=none;fontColor=#000000;" vertex="1" parent="1">
          <mxGeometry x="85" y="-20" width="120" height="40" as="geometry" />
        </mxCell>
        <mxCell id="RtKo5a0ZY0x2Z-9psbsB-7" value="" style="edgeStyle=orthogonalEdgeStyle;rounded=0;orthogonalLoop=1;jettySize=auto;html=1;fontColor=#000000;" edge="1" parent="1" source="RtKo5a0ZY0x2Z-9psbsB-4" target="RtKo5a0ZY0x2Z-9psbsB-6">
          <mxGeometry relative="1" as="geometry" />
        </mxCell>
        <mxCell id="RtKo5a0ZY0x2Z-9psbsB-4" value="&lt;pre style=&quot;font-family: &amp;#34;consolas&amp;#34; ; font-size: 9.8pt&quot;&gt;&lt;span style=&quot;background-color: rgb(255 , 255 , 255)&quot;&gt;AspectJAutoProxyRegistrar&lt;/span&gt;&lt;/pre&gt;" style="whiteSpace=wrap;html=1;rounded=0;strokeColor=#000000;" vertex="1" parent="1">
          <mxGeometry x="45" y="210" width="200" height="60" as="geometry" />
        </mxCell>
        <mxCell id="RtKo5a0ZY0x2Z-9psbsB-6" value="" style="whiteSpace=wrap;html=1;strokeColor=#000000;rounded=0;" vertex="1" parent="1">
          <mxGeometry x="85" y="350" width="120" height="60" as="geometry" />
        </mxCell>
      </root>
    </mxGraphModel>
  </diagram>
</mxfile>
